<svg xmlns="http://www.w3.org/2000/svg" width="48" height="48" viewBox="0 0 48 48">
    <g fill="none" fill-rule="evenodd">
        <path stroke="#F78819" stroke-width="1.5" d="M38 8.75h-8.886l-.18-.495C28.18 6.17 26.22 4.75 24 4.75s-4.18 1.42-4.935 3.505l-.179.495H10A3.262 3.262 0 0 0 6.75 12v28A3.262 3.262 0 0 0 10 43.25h28A3.262 3.262 0 0 0 41.25 40V12A3.262 3.262 0 0 0 38 8.75z"/>
        <path stroke="#F78819" d="M26.5 10c0 1.376-1.124 2.5-2.5 2.5a2.506 2.506 0 0 1-2.5-2.5c0-1.376 1.124-2.5 2.5-2.5s2.5 1.124 2.5 2.5zM13.5 36.5v-5h15v5h-15zM13.5 28.5v-5h21v5h-21zM13.5 20.5v-5h21v5h-21z"/>
        <path d="M0 0h48v48H0z"/>
    </g>
</svg>
