<svg xmlns="http://www.w3.org/2000/svg" width="48" height="48" viewBox="0 0 48 48">
    <g fill="none" fill-rule="evenodd">
        <path d="M0 0h48v48H0z"/>
        <path stroke="#F78819" stroke-width="1.5" d="M38 6.75h-8.886l-.18-.495C28.18 4.17 26.22 2.75 24 2.75s-4.18 1.42-4.935 3.505l-.179.495H10A3.262 3.262 0 0 0 6.75 10v28A3.262 3.262 0 0 0 10 41.25h28A3.262 3.262 0 0 0 41.25 38V10A3.262 3.262 0 0 0 38 6.75z"/>
        <path stroke="#F78819" d="M24 5.5c1.376 0 2.5 1.124 2.5 2.5s-1.124 2.5-2.5 2.5A2.506 2.506 0 0 1 21.5 8c0-1.376 1.124-2.5 2.5-2.5zM20 27.634L33.18 14.452l3.525 3.55L20 34.706 11.293 26l3.526-3.526 5.18 5.16z"/>
    </g>
</svg>
