<svg xmlns="http://www.w3.org/2000/svg" width="48" height="48" viewBox="0 0 48 48">
    <g fill="none" fill-rule="evenodd">
        <path d="M0 0h48v48H0z"/>
        <path stroke="#F78819" stroke-width="1.5" d="M24 4.75C13.374 4.75 4.75 13.374 4.75 24S13.374 43.25 24 43.25 43.25 34.626 43.25 24 34.626 4.75 24 4.75z"/>
        <path stroke="#F78819" d="M26.5 38.5h-5v-5h5v5zM30.496 22.852l-1.8 1.84C27.023 26.386 26.5 27.494 26.5 30v.5h-5V29c0-2.27.906-4.41 2.484-6.01l2.487-2.528A3.41 3.41 0 0 0 27.5 18c0-1.924-1.576-3.5-3.5-3.5a3.512 3.512 0 0 0-3.5 3.5v.5h-5V18c0-4.696 3.804-8.5 8.5-8.5s8.5 3.804 8.5 8.5a6.863 6.863 0 0 1-2.004 4.852z"/>
    </g>
</svg>
