<svg xmlns="http://www.w3.org/2000/svg" xmlns:xlink="http://www.w3.org/1999/xlink" width="48" height="48" viewBox="0 0 48 48">
    <defs>
        <path id="a" d="M0 0h48v48H0z"/>
    </defs>
    <g fill="none" fill-rule="evenodd">
        <mask id="b" fill="#fff">
            <use xlink:href="#a"/>
        </mask>
        <path stroke="#F78819" stroke-width="1.5" d="M41.769 10.713c-2.04-.642-4.373-.963-6.769-.963-4.25 0-8.043.948-10.547 2.848L24 12.94l-.453-.343C21.043 10.698 17.25 9.75 13 9.75c-4.086 0-7.748.876-10.25 2.631V41.3c0 .085.162.247.248.25-.018 0-.021 0 .015-.012.11-.036.198-.061.29-.075C6.093 40.15 10.028 39.25 13 39.25c4.33 0 8.253.929 11.04 2.853 2.853-1.627 7.557-2.853 10.96-2.853 3.682 0 7.106.717 9.835 2.18l.038.018c.009.001.032.002.127.002.086 0 .25-.164.25-.25V12.383c-.98-.682-2.08-1.202-3.481-1.67z" mask="url(#b)"/>
        <path stroke="#F78819" stroke-linecap="square" d="M24 12.5v29" mask="url(#b)"/>
    </g>
</svg>
